# xmcd CD database file
#
# Track frame offsets:
#	150
#	15662
#	22629
#	32328
#	61077
#	62129
#	65462
#	69472
#	80129
#	86414
#	91412
#	120584
#	136350
#	137703
#	141802
#	151077
#	164864
#	181694
#	194504
#	224612
#	236632
#
# Disc length: 4208 seconds
#
# Revision: 0
# Processed by: cddbd v1.5.1PL0 Copyright (c) Steve Scherf et al.
# Submitted via: CDex 1.51
#
DISCID=20106e15
DTITLE=Richard Strauss - アルプス交響曲, 交響詩ドン・ファン
DYEAR=1988
DGENRE=Classical
TTITLE0=アルプス交響曲, Op.64: 1.夜
TTITLE1=2. 日の出
TTITLE2=3. 登り道
TTITLE3=4. 森への立ち入り〜小川のほとりの旅
TTITLE4=5. 滝
TTITLE5=6. 幻影
TTITLE6=7. 花の牧場
TTITLE7=8. 山の牧場
TTITLE8=9. 林で道に迷う
TTITLE9=10. 氷河
TTITLE10=11. 危険な瞬間
TTITLE11=12. 見えるもの
TTITLE12=13. 霧が立ちのぼる
TTITLE13=14. 日は次第にかげる
TTITLE14=15. 悲歌
TTITLE15=16. 嵐の前の静けさ
TTITLE16=17. 雷雨と嵐、下山
TTITLE17=18. 日没
TTITLE18=19. 終結
TTITLE19=20. 夜
TTITLE20=交響詩「ドン・ファン」, Op.20
EXTD=YEAR: 1988
EXTT0=
EXTT1=
EXTT2=
EXTT3=
EXTT4=
EXTT5=
EXTT6=
EXTT7=
EXTT8=
EXTT9=
EXTT10=
EXTT11=
EXTT12=
EXTT13=
EXTT14=
EXTT15=
EXTT16=
EXTT17=
EXTT18=
EXTT19=
EXTT20=
PLAYORDER=
